<svg width="4" height="44" viewBox="0 0 68 68" fill="none" xmlns="http://www.w3.org/2000/svg">
<rect width="44" height="44" rx="12"/>
<path fill="none" stroke="#fafafa" style="stroke: var(--color1, #fafafa)" stroke-linejoin="round" stroke-linecap="round" stroke-miterlimit="4" stroke-width="2.9091" d="M20.364 7.273v-1.164c0-1.629 0-2.444-0.317-3.066-0.279-0.547-0.724-0.992-1.271-1.271-0.622-0.317-1.437-0.317-3.066-0.317h-2.327c-1.629 0-2.444 0-3.066 0.317-0.547 0.279-0.992 0.724-1.271 1.271-0.317 0.622-0.317 1.437-0.317 3.066v1.164M11.636 15.273v7.273M17.455 15.273v7.273M1.455 7.273h26.182M24.727 7.273v16.291c0 2.444 0 3.666-0.476 4.599-0.418 0.821-1.086 1.489-1.907 1.907-0.934 0.476-2.155 0.476-4.599 0.476h-6.4c-2.444 0-3.666 0-4.599-0.476-0.821-0.418-1.489-1.086-1.907-1.907-0.476-0.934-0.476-2.155-0.476-4.599v-16.291"></path>
</svg>
