<svg width="20" height="22" viewBox="0 0 20 22" fill="none" xmlns="http://www.w3.org/2000/svg">
<path d="M13.6667 5.49998V4.76665C13.6667 3.73988 13.6667 3.2265 13.4668 2.83433C13.2911 2.48937 13.0106 2.2089 12.6656 2.03313C12.2735 1.83331 11.7601 1.83331 10.7333 1.83331H9.26667C8.2399 1.83331 7.72652 1.83331 7.33435 2.03313C6.98939 2.2089 6.70892 2.48937 6.53315 2.83433C6.33333 3.2265 6.33333 3.73988 6.33333 4.76665V5.49998M8.16667 10.5416V15.125M11.8333 10.5416V15.125M1.75 5.49998H18.25M16.4167 5.49998V15.7666C16.4167 17.3068 16.4167 18.0769 16.1169 18.6651C15.8533 19.1826 15.4326 19.6033 14.9151 19.8669C14.3269 20.1666 13.5568 20.1666 12.0167 20.1666H7.98333C6.44319 20.1666 5.67312 20.1666 5.08486 19.8669C4.56741 19.6033 4.14672 19.1826 3.88307 18.6651C3.58333 18.0769 3.58333 17.3068 3.58333 15.7666V5.49998" stroke="#FAFAFA" stroke-width="2" stroke-linecap="round" stroke-linejoin="round"/>
</svg>
